<svg xmlns="http://www.w3.org/2000/svg" xmlns:xlink="http://www.w3.org/1999/xlink" version="1.1" x="0px" y="0px" viewBox="0 0 52 65" enable-background="new 0 0 52 52" xml:space="preserve"><g><g><path d="M8.9710617,19.9353943c-0.2983398,0-0.59375-0.1328125-0.7910156-0.3876953    c-0.3364263-0.4335938-0.2592778-1.0585938,0.1713867-1.3974609c0.0283203-0.0234375,0.828125-0.6904297,0.9194336-1.7138672    c0.0683594-0.7685547-0.2709961-1.5966797-1.0087891-2.4628906c-0.875977-0.7822266-1.8940434-2.9335938,0.0913086-5.9824214    C8.6546555,7.5291448,9.2737961,7.3982854,9.737175,7.6990666c0.4624023,0.3017573,0.5932617,0.920898,0.2919922,1.3837886    c-1.5107422,2.3203125-0.5283203,3.3125-0.4111328,3.4189453c0.0297852,0.0263672,0.0810547,0.0751953,0.1074219,0.1054688    c1.1513672,1.3251953,1.6674805,2.6855469,1.5336914,4.0449219c-0.1831055,1.8662109-1.5234375,2.9550781-1.6757813,3.0732422    C9.4012375,19.8670349,9.1854172,19.9353943,8.9710617,19.9353943z"/></g><g><path d="M3.772331,18.8953552c-0.3344727,0-0.6616211-0.1679688-0.8505859-0.4726563    c-0.2900391-0.4677734-0.1479492-1.0810547,0.3164063-1.3730469c0.0273438-0.0185547,0.7783201-0.5292969,0.8378904-1.21875    c0.0532227-0.6191406-0.4721677-1.2587891-0.9404294-1.6982422c-0.2602539-0.1962891-0.9326172-0.7929688-1.0986328-1.8398438    c-0.1674805-1.0546875,0.2290039-2.1806641,1.1787109-3.3476563C3.5648115,8.5154724,4.194694,8.4510193,4.6229167,8.8006287    c0.4282227,0.3486328,0.4926758,0.9785156,0.1445313,1.40625c-0.5595703,0.6875-0.8276365,1.3173828-0.7553711,1.7724609    c0.0541992,0.3427734,0.2993164,0.5371094,0.3012695,0.5390625c0.0483398,0.0302734,0.0932617,0.0654297,0.1352539,0.1044922    c1.184082,1.0898438,1.7285156,2.2353516,1.6176758,3.4052734c-0.1586914,1.6738281-1.6035156,2.6152344-1.7680664,2.7167969    C4.1341472,18.8465271,3.9520185,18.8953552,3.772331,18.8953552z"/></g><g><path d="M39.8006516,46.1531677H16.6043625c-2.7568359,0-5-2.2431641-5-5V24.3553162c0-0.5527344,0.4477539-1,1-1h31.1962891    c0.5522461,0,1,0.4472656,1,1v16.7978516C44.8006516,43.9100037,42.5574875,46.1531677,39.8006516,46.1531677z     M13.6043625,25.3553162v15.7978516c0,1.6542969,1.3457031,3,3,3h23.1962891c1.6542969,0,3-1.3457031,3-3V25.3553162H13.6043625z"/></g><g><path d="M12.6043625,33.415863h-3.199707c-1.6542974,0-3.0000005-1.3457031-3.0000005-3v-0.1591797    c0-1.6542969,1.3457031-3,3.0000005-3h3.199707c0.5522461,0,1,0.4472656,1,1v4.1591797    C13.6043625,32.9685974,13.1566086,33.415863,12.6043625,33.415863z M9.4046555,29.2566833c-0.5512695,0-1,0.4482422-1,1    v0.1591797c0,0.5517578,0.4487305,1,1,1h2.199707v-2.1591797H9.4046555z"/></g><g><path d="M47.0003586,33.415863h-3.199707c-0.5522461,0-1-0.4472656-1-1v-4.1591797c0-0.5527344,0.4477539-1,1-1h3.199707    c1.6542969,0,3,1.3457031,3,3v0.1591797C50.0003586,32.0701599,48.6546555,33.415863,47.0003586,33.415863z M44.8006516,31.415863    h2.199707c0.5512695,0,1-0.4482422,1-1v-0.1591797c0-0.5517578-0.4487305-1-1-1h-2.199707V31.415863z"/></g><g><path d="M43.5164719,25.3553162c-0.1196289,0-0.2387695-0.0214844-0.3530273-0.0644531L13.9730148,14.2840271    c-0.5166016-0.1943359-0.7773438-0.7714844-0.5825195-1.2880859c0.6826172-1.8115234,2.0253906-3.2470703,3.78125-4.0419922    c1.7646484-0.7958984,3.730957-0.8613281,5.5366211-0.1816406l17.5244141,6.6074219    c3.7348633,1.4082031,5.6274414,5.59375,4.2192383,9.328125c-0.0932617,0.2480469-0.2817383,0.4492188-0.5234375,0.5585938    C43.7977219,25.3260193,43.6570969,25.3553162,43.5164719,25.3553162z M15.702507,12.7986755l27.1416016,10.234375    c0.4130859-2.4228516-0.934082-4.8828125-3.3173828-5.7822266L22.0028,10.6434021    c-1.3051758-0.4921875-2.7280273-0.4433594-4.0063477,0.1328125    C17.0350266,11.2117615,16.2440109,11.9139099,15.702507,12.7986755z"/></g><g><path d="M34.4500656,15.2684021c-0.1186523,0-0.2382813-0.0214844-0.3530273-0.0644531l-6.6552734-2.5097656    c-0.3242188-0.1220703-0.5620117-0.4042969-0.628418-0.7441406c-0.1791992-0.9199219-0.097168-1.875,0.2373047-2.7617188    c0.4858398-1.289062,1.4453125-2.3124995,2.7006836-2.8798823c1.2548828-0.5683594,2.6567383-0.6132813,3.9467773-0.1269531    c2.6616211,1.0039063,4.0107422,3.9863276,3.0078125,6.648437c0,0,0,0,0,0.0009766    c-0.3339844,0.8847656-0.902832,1.6552734-1.6445313,2.2285156C34.8836594,15.197113,34.6678391,15.2684021,34.4500656,15.2684021    z M28.7210617,11.0389099l5.5083008,2.0771484c0.2602539-0.2861328,0.4658203-0.6220703,0.6054688-0.9921875    c0.6137695-1.6298828-0.2124023-3.4560547-1.8422852-4.0712891c-0.7915039-0.2978511-1.6489258-0.2695308-2.4169922,0.0771484    c-0.7685547,0.3486328-1.355957,0.9746094-1.6538086,1.7646484    C28.7820969,10.2644958,28.7147141,10.6521912,28.7210617,11.0389099z M35.7703781,12.4773865h0.0097656H35.7703781z"/></g></g><text x="0" y="67" fill="#000000" font-size="5px" font-weight="bold" font-family="'Helvetica Neue', Helvetica, Arial-Unicode, Arial, Sans-serif">Created by Dinosoft Labs</text><text x="0" y="72" fill="#000000" font-size="5px" font-weight="bold" font-family="'Helvetica Neue', Helvetica, Arial-Unicode, Arial, Sans-serif">from the Noun Project</text></svg>