<svg xmlns="http://www.w3.org/2000/svg" xmlns:xlink="http://www.w3.org/1999/xlink" version="1.1" x="0px" y="0px" viewBox="0 0 100 125" enable-background="new 0 0 100 100" xml:space="preserve"><g><path d="M93,42h-4v-2c0-3.9-3.1-7-7-7c-1.1,0-2.1,0.3-3,0.7V32c0-3.9-3.1-7-7-7s-7,3.1-7,7v10H35V32c0-3.9-3.1-7-7-7s-7,3.1-7,7   v1.7c-0.9-0.4-1.9-0.7-3-0.7c-3.9,0-7,3.1-7,7v2H7c-1.1,0-2,0.9-2,2v12c0,1.1,0.9,2,2,2h4v2c0,3.9,3.1,7,7,7c1.1,0,2.1-0.3,3-0.7   V68c0,3.9,3.1,7,7,7s7-3.1,7-7V58h30v10c0,3.9,3.1,7,7,7s7-3.1,7-7v-1.7c0.9,0.4,1.9,0.7,3,0.7c3.9,0,7-3.1,7-7v-2h4   c1.1,0,2-0.9,2-2V44C95,42.9,94.1,42,93,42z M9,54v-8h2v8H9z M18,63c-1.7,0-3-1.3-3-3V40c0-1.7,1.3-3,3-3s3,1.3,3,3v20   C21,61.7,19.7,63,18,63z M31,68c0,1.7-1.3,3-3,3s-3-1.3-3-3V32c0-1.7,1.3-3,3-3s3,1.3,3,3V68z M35,54v-8h30v8H35z M75,68   c0,1.7-1.3,3-3,3s-3-1.3-3-3V32c0-1.7,1.3-3,3-3s3,1.3,3,3V68z M85,60c0,1.7-1.3,3-3,3s-3-1.3-3-3V40c0-1.7,1.3-3,3-3s3,1.3,3,3V60   z M91,54h-2v-8h2V54z"/></g><text x="0" y="115" fill="#000000" font-size="5px" font-weight="bold" font-family="'Helvetica Neue', Helvetica, Arial-Unicode, Arial, Sans-serif">Created by Joel Avery</text><text x="0" y="120" fill="#000000" font-size="5px" font-weight="bold" font-family="'Helvetica Neue', Helvetica, Arial-Unicode, Arial, Sans-serif">from the Noun Project</text></svg>