<svg xmlns="http://www.w3.org/2000/svg" xmlns:xlink="http://www.w3.org/1999/xlink" version="1.1" x="0px" y="0px" viewBox="0 0 128 160" style="enable-background:new 0 0 128 128;" xml:space="preserve"><g><path d="M101.7,25.5c-0.9-3.4-3-6.2-6.1-7.9c-3-1.7-6.5-2.2-9.9-1.3c-3.4,0.9-6.2,3-7.9,6.1L37.6,92.1c-3.3,5.8-5.3,12.3-5.7,18.9   l-0.8,12.9c-0.1,1.1,0.5,2.2,1.5,2.8c0.5,0.3,1,0.4,1.5,0.4c0.6,0,1.2-0.2,1.7-0.5l10.8-7.1c5.5-3.7,10.2-8.6,13.5-14.4l36.7-63.6   c2.7,2.1,3.5,5.9,1.7,9l-21,36.4c-0.8,1.4-0.3,3.3,1.1,4.1c0.5,0.3,1,0.4,1.5,0.4c1,0,2-0.5,2.6-1.5l21-36.4   c3.4-5.9,1.6-13.4-3.9-17.2l0.5-0.9C102.2,32.3,102.6,28.8,101.7,25.5z M95.2,32.3L55,102.1c-2.9,4.9-6.9,9.2-11.7,12.4l-5.8,3.8   l0.4-6.9c0.3-5.7,2-11.3,4.9-16.3l40.3-69.8c1.3-2.2,3.7-3.5,6.1-3.5c1.2,0,2.4,0.3,3.5,0.9c1.6,0.9,2.8,2.4,3.3,4.3   S96.2,30.7,95.2,32.3z"/><path d="M99,127c1.7,0,3-1.3,3-3s-1.3-3-3-3H59c-1.7,0-3,1.3-3,3s1.3,3,3,3H99z"/><circle cx="114" cy="124" r="3"/></g><text x="0" y="143" fill="#000000" font-size="5px" font-weight="bold" font-family="'Helvetica Neue', Helvetica, Arial-Unicode, Arial, Sans-serif">Created by Kokota</text><text x="0" y="148" fill="#000000" font-size="5px" font-weight="bold" font-family="'Helvetica Neue', Helvetica, Arial-Unicode, Arial, Sans-serif">from the Noun Project</text></svg>